<?xml version="1.0" encoding="UTF-8"?>
<svg width="29px" height="29px" viewBox="0 0 29 29" version="1.1" xmlns="http://www.w3.org/2000/svg" xmlns:xlink="http://www.w3.org/1999/xlink">
    <!-- Generator: Sketch 42 (36781) - http://www.bohemiancoding.com/sketch -->
    <title>class</title>
    <desc>Created with Sketch.</desc>
    <defs></defs>
    <g id="Screen" stroke="none" stroke-width="1" fill="none" fill-rule="evenodd">
        <g id="View-Diagram" transform="translate(-348.000000, -183.000000)">
            <g id="class" transform="translate(328.000000, 171.000000)">
                <g transform="translate(20.000000, 12.000000)">
                    <g>
                        <circle id="bg-(-class-)" fill="#F44336" cx="14.5" cy="14.5" r="14.5"></circle>
                        <path d="M18.8261719,9.29199219 C19.7285201,10.1533246 20.2294917,11.1318305 20.3291016,12.2275391 L18.6240234,12.2275391 C18.4306631,11.3955037 18.045413,10.7363306 17.4682617,10.25 C16.8911104,9.76366944 16.0810599,9.52050781 15.0380859,9.52050781 C13.7665952,9.52050781 12.73975,9.96728069 11.9575195,10.8608398 C11.1752891,11.754399 10.7841797,13.1240142 10.7841797,14.9697266 C10.7841797,16.4814529 11.1372035,17.7075148 11.8432617,18.6479492 C12.5493199,19.5883836 13.6025321,20.0585938 15.0029297,20.0585938 C16.2919986,20.0585938 17.2734341,19.5634815 17.9472656,18.5732422 C18.3046893,18.0517552 18.5712882,17.3662152 18.7470703,16.5166016 L20.4521484,16.5166016 C20.2998039,17.8759834 19.7959027,19.0156204 18.9404297,19.9355469 C17.9150339,21.0429743 16.5322353,21.5966797 14.7919922,21.5966797 C13.2919847,21.5966797 12.0322317,21.1425827 11.0126953,20.234375 C9.67089173,19.0331971 9,17.1787235 9,14.6708984 C9,12.766592 9.50390121,11.2050842 10.5117188,9.98632812 C11.6015679,8.66210275 13.1044826,8 15.0205078,8 C16.6552816,8 17.9238236,8.43065976 18.8261719,9.29199219 Z" id="C" fill="#FFFFFF"></path>
                    </g>
                </g>
            </g>
        </g>
    </g>
</svg>