<?xml version="1.0" encoding="UTF-8"?>
<svg width="14px" height="14px" viewBox="0 0 14 14" version="1.1" xmlns="http://www.w3.org/2000/svg" xmlns:xlink="http://www.w3.org/1999/xlink">
    <!-- Generator: Sketch 42 (36781) - http://www.bohemiancoding.com/sketch -->
    <title>constructor</title>
    <desc>Created with Sketch.</desc>
    <defs></defs>
    <g id="Screen" stroke="none" stroke-width="1" fill="none" fill-rule="evenodd">
        <g id="View-Diagram" transform="translate(-348.000000, -313.000000)">
            <g id="class" transform="translate(328.000000, 171.000000)">
                <g id="constructor" transform="translate(20.000000, 140.000000)">
                    <g transform="translate(0.000000, 2.000000)">
                        <circle id="bg-(-constructor-)" fill="#49A936" cx="7" cy="7" r="7"></circle>
                        <path d="M8.83613445,4.57013575 C9.23432649,4.95022814 9.45539732,5.38202732 9.49935359,5.86554622 L8.74692954,5.86554622 C8.66160268,5.49838213 8.49159791,5.20749946 8.23691015,4.99288946 C7.98222239,4.77827947 7.6247599,4.67097608 7.16451196,4.67097608 C6.60342318,4.67097608 6.15029261,4.8681299 5.80510666,5.26244344 C5.4599207,5.65675698 5.28733032,6.26114654 5.28733032,7.07563025 C5.28733032,7.7427312 5.44311415,8.28377297 5.75468649,8.69877182 C6.06625883,9.11377066 6.53102471,9.32126697 7.14899806,9.32126697 C7.71784383,9.32126697 8.15093581,9.10278176 8.44828701,8.66580478 C8.60601242,8.43568081 8.72365831,8.13316283 8.80122818,7.75824176 L9.55365223,7.75824176 C9.486425,8.35811548 9.26406136,8.8610193 8.88655462,9.26696833 C8.43406367,9.75565855 7.82385646,10 7.05591467,10 C6.39398505,10 5.83807594,9.79961416 5.38817065,9.39883646 C4.79605392,8.86877563 4.5,8.0504257 4.5,6.94376212 C4.5,6.10342178 4.72236365,5.41435304 5.16709761,4.87653523 C5.64803085,4.29217549 6.31124335,4 7.15675501,4 C7.87815487,4 8.43794242,4.19004335 8.83613445,4.57013575 Z" id="C" fill="#FFFFFF"></path>
                    </g>
                </g>
            </g>
        </g>
    </g>
</svg>