<?xml version="1.0" encoding="UTF-8"?>
<svg width="14px" height="14px" viewBox="0 0 14 14" version="1.1" xmlns="http://www.w3.org/2000/svg" xmlns:xlink="http://www.w3.org/1999/xlink">
    <!-- Generator: Sketch 41.2 (35397) - http://www.bohemiancoding.com/sketch -->
    <title>US</title>
    <desc>Created with Sketch.</desc>
    <defs>
        <circle id="path-1" cx="7" cy="7" r="7"></circle>
        <rect id="path-3" x="-2.94736842" y="0" width="8.52631579" height="6.53333333"></rect>
        <filter x="-50%" y="-50%" width="200%" height="200%" filterUnits="objectBoundingBox" id="filter-4">
            <feMorphology radius="1" operator="erode" in="SourceAlpha" result="shadowSpreadInner1"></feMorphology>
            <feOffset dx="0" dy="0" in="shadowSpreadInner1" result="shadowOffsetInner1"></feOffset>
            <feComposite in="shadowOffsetInner1" in2="SourceAlpha" operator="arithmetic" k2="-1" k3="1" result="shadowInnerInner1"></feComposite>
            <feColorMatrix values="0 0 0 0 0   0 0 0 0 0   0 0 0 0 0  0 0 0 0.2 0" type="matrix" in="shadowInnerInner1"></feColorMatrix>
        </filter>
    </defs>
    <g id="screens" stroke="none" stroke-width="1" fill="none" fill-rule="evenodd">
        <g id="Homepage" transform="translate(-1260.000000, -1089.000000)">
            <g id="footbar" transform="translate(329.000000, 1076.000000)">
                <g id="language" transform="translate(931.000000, 13.000000)">
                    <g id="US">
                        <mask id="mask-2" fill="white">
                            <use xlink:href="#path-1"></use>
                        </mask>
                        <use id="mask" fill="#D8D8D8" xlink:href="#path-1"></use>
                        <g id="rectangle" mask="url(#mask-2)">
                            <use fill="#435DB0" fill-rule="evenodd" xlink:href="#path-3"></use>
                            <use fill="black" fill-opacity="1" filter="url(#filter-4)" xlink:href="#path-3"></use>
                        </g>
                        <path d="M-2,0.933333333 L-2,1.86666667 L-1.05263158,1.86666667 L-1.05263158,0.933333333 L-2,0.933333333 L-2,0.933333333 Z M-0.105263158,0.933333333 L-0.105263158,1.86666667 L0.842105263,1.86666667 L0.842105263,0.933333333 L-0.105263158,0.933333333 L-0.105263158,0.933333333 Z M1.78947368,0.933333333 L1.78947368,1.86666667 L2.73684211,1.86666667 L2.73684211,0.933333333 L1.78947368,0.933333333 L1.78947368,0.933333333 Z M3.68421053,0.933333333 L3.68421053,1.86666667 L4.63157895,1.86666667 L4.63157895,0.933333333 L3.68421053,0.933333333 L3.68421053,0.933333333 Z M2.73684211,1.86666667 L2.73684211,2.8 L3.68421053,2.8 L3.68421053,1.86666667 L2.73684211,1.86666667 L2.73684211,1.86666667 Z M0.842105263,1.86666667 L0.842105263,2.8 L1.78947368,2.8 L1.78947368,1.86666667 L0.842105263,1.86666667 L0.842105263,1.86666667 Z M-1.05263158,1.86666667 L-1.05263158,2.8 L-0.105263158,2.8 L-0.105263158,1.86666667 L-1.05263158,1.86666667 L-1.05263158,1.86666667 Z M-2,2.8 L-2,3.73333333 L-1.05263158,3.73333333 L-1.05263158,2.8 L-2,2.8 L-2,2.8 Z M-0.105263158,2.8 L-0.105263158,3.73333333 L0.842105263,3.73333333 L0.842105263,2.8 L-0.105263158,2.8 L-0.105263158,2.8 Z M1.78947368,2.8 L1.78947368,3.73333333 L2.73684211,3.73333333 L2.73684211,2.8 L1.78947368,2.8 L1.78947368,2.8 Z M3.68421053,2.8 L3.68421053,3.73333333 L4.63157895,3.73333333 L4.63157895,2.8 L3.68421053,2.8 L3.68421053,2.8 Z M-2,4.66666667 L-2,5.6 L-1.05263158,5.6 L-1.05263158,4.66666667 L-2,4.66666667 L-2,4.66666667 Z M-0.105263158,4.66666667 L-0.105263158,5.6 L0.842105263,5.6 L0.842105263,4.66666667 L-0.105263158,4.66666667 L-0.105263158,4.66666667 Z M1.78947368,4.66666667 L1.78947368,5.6 L2.73684211,5.6 L2.73684211,4.66666667 L1.78947368,4.66666667 L1.78947368,4.66666667 Z M3.68421053,4.66666667 L3.68421053,5.6 L4.63157895,5.6 L4.63157895,4.66666667 L3.68421053,4.66666667 L3.68421053,4.66666667 Z M2.73684211,3.73333333 L2.73684211,4.66666667 L3.68421053,4.66666667 L3.68421053,3.73333333 L2.73684211,3.73333333 L2.73684211,3.73333333 Z M0.842105263,3.73333333 L0.842105263,4.66666667 L1.78947368,4.66666667 L1.78947368,3.73333333 L0.842105263,3.73333333 L0.842105263,3.73333333 Z M-1.05263158,3.73333333 L-1.05263158,4.66666667 L-0.105263158,4.66666667 L-0.105263158,3.73333333 L-1.05263158,3.73333333 L-1.05263158,3.73333333 Z" id="stars" fill="#A7B6E7" mask="url(#mask-2)"></path>
                        <path d="M5.57894737,0 L5.57894737,0.933333333 L16.9473684,0.933333333 L16.9473684,0 L5.57894737,0 L5.57894737,0 Z M5.57894737,1.86666667 L5.57894737,2.8 L16.9473684,2.8 L16.9473684,1.86666667 L5.57894737,1.86666667 L5.57894737,1.86666667 Z M5.57894737,3.73333333 L5.57894737,4.66666667 L16.9473684,4.66666667 L16.9473684,3.73333333 L5.57894737,3.73333333 L5.57894737,3.73333333 Z M5.57894737,5.6 L5.57894737,6.53333333 L16.9473684,6.53333333 L16.9473684,5.6 L5.57894737,5.6 L5.57894737,5.6 Z M-2.94736842,7.46666667 L-2.94736842,8.4 L16.9473684,8.4 L16.9473684,7.46666667 L-2.94736842,7.46666667 L-2.94736842,7.46666667 Z M-2.94736842,9.33333333 L-2.94736842,10.2666667 L16.9473684,10.2666667 L16.9473684,9.33333333 L-2.94736842,9.33333333 L-2.94736842,9.33333333 Z M-2.94736842,11.2 L-2.94736842,12.1333333 L16.9473684,12.1333333 L16.9473684,11.2 L-2.94736842,11.2 L-2.94736842,11.2 Z M-2.94736842,13.0666667 L-2.94736842,14 L16.9473684,14 L16.9473684,13.0666667 L-2.94736842,13.0666667 L-2.94736842,13.0666667 Z" id="stripe" fill="#ED4C49" mask="url(#mask-2)"></path>
                    </g>
                </g>
            </g>
        </g>
    </g>
</svg>