<?xml version="1.0" encoding="UTF-8"?>
<svg width="25px" height="25px" viewBox="0 0 25 25" version="1.1" xmlns="http://www.w3.org/2000/svg" xmlns:xlink="http://www.w3.org/1999/xlink">
    <!-- Generator: Sketch 42 (36781) - http://www.bohemiancoding.com/sketch -->
    <title>icon ( github )</title>
    <desc>Created with Sketch.</desc>
    <defs></defs>
    <g id="Symbols" stroke="none" stroke-width="1" fill="none" fill-rule="evenodd">
        <g id="nav-bar" transform="translate(-1398.000000, -18.000000)" fill="#FFFFFF">
            <path d="M1410.5,18 C1403.59735,18 1398,23.5963864 1398,30.500632 C1398,36.0235315 1401.58163,40.709302 1406.54826,42.3622388 C1407.17297,42.4779547 1407.40232,42.0910619 1407.40232,41.7608886 C1407.40232,41.463008 1407.39073,40.4780771 1407.38535,39.4335287 C1403.90784,40.1897188 1403.17404,37.9586165 1403.17404,37.9586165 C1402.60543,36.5139269 1401.78614,36.1295182 1401.78614,36.1295182 C1400.65202,35.3536626 1401.87163,35.369602 1401.87163,35.369602 C1403.12685,35.4577862 1403.78778,36.6580026 1403.78778,36.6580026 C1404.90265,38.5688679 1406.712,38.0163709 1407.4253,37.6969618 C1407.5377,36.8892274 1407.86144,36.3375585 1408.21892,36.0253946 C1405.4425,35.7095046 1402.52387,34.6374245 1402.52387,29.8475304 C1402.52387,28.482952 1403.01217,27.3676078 1403.81179,26.4921826 C1403.68201,26.1773277 1403.25415,24.9059015 1403.93309,23.184032 C1403.93309,23.184032 1404.98276,22.8482695 1407.37127,24.4656014 C1408.36837,24.1886284 1409.4377,24.0497279 1410.5,24.0447598 C1411.5623,24.0497279 1412.63246,24.1886284 1413.63142,24.4656014 C1416.01724,22.8482695 1417.06546,23.184032 1417.06546,23.184032 C1417.74585,24.9059015 1417.31799,26.1773277 1417.18821,26.4921826 C1417.98969,27.3676078 1418.47447,28.482952 1418.47447,29.8475304 C1418.47447,34.6490168 1415.55026,35.7059855 1412.7668,36.0154583 C1413.21515,36.4033861 1413.61465,37.1641304 1413.61465,38.3303979 C1413.61465,40.0030001 1413.60037,41.3491552 1413.60037,41.7608886 C1413.60037,42.093753 1413.82516,42.4833368 1414.45877,42.3607897 C1419.42292,40.7059899 1423,36.0218755 1423,30.500632 C1423,23.5963864 1417.40348,18 1410.5,18" id="icon-(-github-)"></path>
        </g>
    </g>
</svg>