<?xml version="1.0" encoding="UTF-8"?>
<svg width="55px" height="28px" viewBox="0 0 55 28" version="1.1" xmlns="http://www.w3.org/2000/svg" xmlns:xlink="http://www.w3.org/1999/xlink">
    <!-- Generator: Sketch 42 (36781) - http://www.bohemiancoding.com/sketch -->
    <title>Combined Shape</title>
    <desc>Created with Sketch.</desc>
    <defs>
        <filter x="-50%" y="-50%" width="200%" height="200%" filterUnits="objectBoundingBox" id="filter-1">
            <feOffset dx="0" dy="2" in="SourceAlpha" result="shadowOffsetOuter1"></feOffset>
            <feGaussianBlur stdDeviation="2" in="shadowOffsetOuter1" result="shadowBlurOuter1"></feGaussianBlur>
            <feColorMatrix values="0 0 0 0 0   0 0 0 0 0   0 0 0 0 0  0 0 0 0.2 0" type="matrix" in="shadowBlurOuter1" result="shadowMatrixOuter1"></feColorMatrix>
            <feMerge>
                <feMergeNode in="shadowMatrixOuter1"></feMergeNode>
                <feMergeNode in="SourceGraphic"></feMergeNode>
            </feMerge>
        </filter>
    </defs>
    <g id="Symbols" stroke="none" stroke-width="1" fill="none" fill-rule="evenodd">
        <g id="nav-bar" transform="translate(-271.000000, -16.000000)">
            <g filter="url(#filter-1)">
                <rect id="bg-(-nav-bar-)" fill="#FFFFFF" x="0" y="0" width="1680" height="60"></rect>
                <g id="logo" transform="translate(271.000000, 16.000000)" fill="#4F4F4F">
                    <path d="M50.373269,5.96537652 L42.7386404,10.3732314 L42.7386404,17.6267686 L50.7190476,22.2342589 L50.8862964,22.33082 C51.2807588,21.8651389 51.8707646,21.569378 52.5300703,21.569378 C53.7177061,21.569378 54.6804751,22.5290738 54.6804751,23.7129187 C54.6804751,24.8967635 53.7177061,25.8564593 52.5300703,25.8564593 C51.3424346,25.8564593 50.3796656,24.8967635 50.3796656,23.7129187 C50.3796656,23.4744091 50.4187446,23.2449978 50.4908684,23.0306999 L50.3171337,22.9303941 L42.7386404,18.554949 L42.7386404,21.9932975 C42.7386404,25.3107077 40.0452855,28 36.7471568,28 L20.6404618,28 C17.3314568,28 14.6489782,25.3152423 14.6489782,21.9932975 L14.6489782,14.4688995 L4.636156,14.4688995 L4.26307106,14.4688995 C4.0743435,15.460633 3.20022804,16.2105263 2.15040477,16.2105263 C0.962769007,16.2105263 0,15.2508305 0,14.0669856 C0,12.8831408 0.962769007,11.923445 2.15040477,11.923445 C3.20022804,11.923445 4.0743435,12.6733383 4.26307106,13.6650718 L4.636156,13.6650718 L14.6489782,13.6650718 L14.6489782,6.00670248 C14.6489782,2.6892923 17.3423331,0 20.6404618,0 L36.7471568,0 C40.0561619,0 42.7386404,2.68475771 42.7386404,6.00670248 L42.7386404,9.44505103 L49.9656998,5.27250636 C49.885784,5.04818312 49.8422825,4.80666747 49.8422825,4.55502392 C49.8422825,3.3711791 50.8050515,2.41148325 51.9926872,2.41148325 C53.180323,2.41148325 54.143092,3.3711791 54.143092,4.55502392 C54.143092,5.73886875 53.180323,6.69856459 51.9926872,6.69856459 C51.3468158,6.69856459 50.7674488,6.41473396 50.373269,5.96537652 Z M28.6938093,21.4354067 C32.8134208,21.4354067 36.1530258,18.1064617 36.1530258,14 C36.1530258,9.89353827 32.8134208,6.5645933 28.6938093,6.5645933 C24.5741978,6.5645933 21.2345928,9.89353827 21.2345928,14 C21.2345928,18.1064617 24.5741978,21.4354067 28.6938093,21.4354067 Z M2.15013215,15.272836 C2.81823749,15.272836 3.35984388,14.7329584 3.35984388,14.0669856 C3.35984388,13.4010129 2.81823749,12.8611353 2.15013215,12.8611353 C1.48202681,12.8611353 0.940420424,13.4010129 0.940420424,14.0669856 C0.940420424,14.7329584 1.48202681,15.272836 2.15013215,15.272836 Z M52.5297977,24.918769 C53.1979031,24.918769 53.7395095,24.3788914 53.7395095,23.7129187 C53.7395095,23.0469459 53.1979031,22.5070683 52.5297977,22.5070683 C51.8616924,22.5070683 51.320086,23.0469459 51.320086,23.7129187 C51.320086,24.3788914 51.8616924,24.918769 52.5297977,24.918769 Z M51.9924146,5.76087425 C52.66052,5.76087425 53.2021264,5.22099667 53.2021264,4.55502392 C53.2021264,3.88905118 52.66052,3.3491736 51.9924146,3.3491736 C51.3243093,3.3491736 50.7827029,3.88905118 50.7827029,4.55502392 C50.7827029,5.22099667 51.3243093,5.76087425 51.9924146,5.76087425 Z" id="Combined-Shape"></path>
                </g>
            </g>
        </g>
    </g>
</svg>