<?xml version="1.0" encoding="UTF-8"?>
<svg width="18px" height="18px" viewBox="0 0 18 18" version="1.1" xmlns="http://www.w3.org/2000/svg" xmlns:xlink="http://www.w3.org/1999/xlink">
    <!-- Generator: Sketch 42 (36781) - http://www.bohemiancoding.com/sketch -->
    <title>Shape</title>
    <desc>Created with Sketch.</desc>
    <defs></defs>
    <g id="Symbols" stroke="none" stroke-width="1" fill="none" fill-rule="evenodd">
        <g id="nav-bar" transform="translate(-1331.000000, -21.000000)" fill="#4F4F4F">
            <path d="M1343.5,32 L1342.71,32 L1342.43,31.73 C1343.41,30.59 1344,29.11 1344,27.5 C1344,23.91 1341.09,21 1337.5,21 C1333.91,21 1331,23.91 1331,27.5 C1331,31.09 1333.91,34 1337.5,34 C1339.11,34 1340.59,33.41 1341.73,32.43 L1342,32.71 L1342,33.5 L1347,38.49 L1348.49,37 L1343.5,32 L1343.5,32 Z M1337.5,32 C1335.01,32 1333,29.99 1333,27.5 C1333,25.01 1335.01,23 1337.5,23 C1339.99,23 1342,25.01 1342,27.5 C1342,29.99 1339.99,32 1337.5,32 Z" id="Shape"></path>
        </g>
    </g>
</svg>